<?xml version="1.0" encoding="UTF-8" standalone="no"?>
<svg 
    role="img" 
    xmlns="http://www.w3.org/2000/svg" 
    width="1000mm"
    height="1000mm"
    viewBox="0 0 1000 1000"
    style="max-width:1.6em; height: auto;">
    
    <path 
        id="path" 
        style="opacity:1;vector-effect:none;fill:#000000;fill-opacity:1;"
        d="M 500 0C 224 0 0 224 0 500C 0 776 224 1000 500 1000C 776 1000 1000 776 1000 500C 1000 224 776 0 500 0C 500 0 500 0 500 0M 500 25C 762 25 975 238 975 500C 975 762 762 975 500 975C 238 975 25 762 25 500C 25 238 238 25 500 25C 500 25 500 25 500 25 M 738 652C 724 661 707 669 686 676C 642 690 582 699 515 700C 448 701 385 694 336 682C 312 676 291 668 275 659C 270 657 266 655 263 652C 263 652 263 806 263 806C 263 808 263 809 263 811C 263 811 263 812 263 812C 263 812 263 813 263 813C 263 813 262 813 262 813C 262 815 263 818 266 822C 270 826 276 831 285 837C 304 847 333 857 371 864C 446 878 542 879 620 866C 658 859 690 850 710 839C 720 834 727 829 732 824C 736 819 738 816 738 813C 738 813 738 652 738 652M 738 452C 724 462 705 470 683 477C 637 491 576 499 507 500C 439 501 376 493 328 480C 304 473 284 465 268 456C 266 454 264 453 263 452C 263 452 263 615 263 615C 263 615 263 616 263 617C 265 622 273 630 287 638C 300 645 319 652 342 658C 388 669 449 676 514 675C 579 674 637 665 678 652C 698 646 714 638 724 631C 734 623 738 617 738 613C 738 613 738 452 738 452M 738 252C 723 262 704 270 680 278C 633 292 570 300 500 300C 430 300 367 292 320 278C 296 270 277 262 263 252C 263 252 263 414 263 414C 263 414 263 414 263 414C 264 419 269 427 281 434C 294 442 312 450 334 456C 379 468 440 476 507 475C 574 474 633 466 676 453C 697 446 713 439 724 431C 734 423 738 417 738 413C 738 413 738 252 738 252M 500 150C 432 150 370 158 327 171C 305 178 288 186 277 194C 266 201 263 208 263 213C 263 217 266 224 277 231C 288 239 305 247 327 254C 370 267 432 275 500 275C 568 275 630 267 673 254C 695 247 712 239 723 231C 734 224 738 217 738 213C 738 208 734 201 723 194C 712 186 695 178 673 171C 630 158 568 150 500 150C 500 150 500 150 500 150M 500 125C 570 125 633 133 680 147C 704 155 723 163 738 173C 752 183 763 197 763 213C 763 213 763 413 763 413C 763 413 763 613 763 613C 763 613 763 813 763 813C 763 823 758 833 750 841C 743 849 733 855 721 862C 697 874 664 884 624 890C 543 904 445 903 366 889C 327 881 295 871 273 858C 262 852 253 845 246 837C 241 830 238 821 238 813C 238 813 238 813 238 813C 238 813 238 213 238 213C 238 197 248 183 262 173C 277 163 296 155 320 147C 367 133 430 125 500 125C 500 125 500 125 500 125"
        transform="">
    </path>    
</svg>