<?xml version="1.0" encoding="UTF-8" standalone="no"?>
<svg 
    role="img" 
    xmlns="http://www.w3.org/2000/svg" 
    width="1000mm"
    height="1000mm"
    viewBox="0 0 1000 1000"
    style="max-width:1.6em; height: auto;">
    
    <path 
        id="path" 
        style="opacity:1;vector-effect:none;fill:#000000;fill-opacity:1;"
        d=" M 451 462C 451 462 451 782 451 782C 451 828 432 841 401 841C 369 841 355 818 341 792C 341 792 264 839 264 839C 286 885 330 924 405 924C 488 924 545 880 545 783C 545 783 545 462 545 462C 545 462 451 462 451 462M 762 457C 678 457 624 510 624 581C 624 657 669 693 737 722C 737 722 761 732 761 732C 804 751 829 763 829 795C 829 822 804 841 765 841C 719 841 693 817 673 784C 673 784 596 828 596 828C 624 883 680 925 767 925C 857 925 923 878 923 794C 923 715 878 680 798 646C 798 646 775 636 775 636C 734 618 717 607 717 579C 717 556 734 539 762 539C 789 539 806 550 822 579C 822 579 896 532 896 532C 865 477 822 457 762 457C 762 457 762 457 762 457M 0 0C 0 0 1000 0 1000 0C 1000 0 1000 1000 1000 1000C 1000 1000 0 1000 0 1000C 0 1000 0 0 0 0"
        transform="">
    </path>    
</svg>